<?xml version="1.0" encoding="UTF-8"?>
<svg width="46px" height="46px" viewBox="0 0 46 46" version="1.1" xmlns="http://www.w3.org/2000/svg" xmlns:xlink="http://www.w3.org/1999/xlink">
    <!-- Generator: Sketch 40.1 (33804) - http://www.bohemiancoding.com/sketch -->
    <title>Twitter_Color</title>
    <desc>Created with Sketch.</desc>
    <defs></defs>
    <g id="Design" stroke="none" stroke-width="1" fill="none" fill-rule="evenodd">
        <g id="Share-Page" transform="translate(-462.000000, -684.000000)">
            <g id="Group-9" transform="translate(410.000000, 683.554688)">
                <g id="Group-3">
                    <g id="Twitter" transform="translate(52.385333, 0.596351)">
                        <path d="M0,22.4508569 C0,10.0515904 10.0515904,0 22.4508569,0 C34.8501233,0 44.9017137,10.0515904 44.9017137,22.4508569 C44.9017137,34.8501233 34.8501233,44.9017137 22.4508569,44.9017137 C10.0515904,44.9017137 0,34.8501233 0,22.4508569 Z" id="back" fill="#55ACEE"></path>
                        <path d="M21.7784561,18.2483377 L21.8255679,19.025188 L21.0403724,18.9300634 C18.1822607,18.5654194 15.685339,17.3288006 13.5653111,15.2519151 L12.528853,14.2213994 L12.2618865,14.9823956 C11.6965457,16.678783 12.0577357,18.4702949 13.2355289,19.6752056 C13.8636854,20.3410772 13.7223502,20.4362018 12.6387804,20.0398496 C12.2618865,19.9130169 11.9321044,19.8178924 11.9006966,19.8654546 C11.7907692,19.9764332 12.167663,21.4191552 12.4660373,21.9899024 C12.874339,22.7826068 13.7066463,23.5594571 14.6174731,24.0192256 L15.3869647,24.3838696 L14.4761379,24.3997237 C13.5967189,24.3997237 13.5653111,24.4155778 13.6595345,24.7485136 C13.9736127,25.7790293 15.2142216,26.8729614 16.5961657,27.348584 L17.5698082,27.6815199 L16.721797,28.1888507 C15.4654842,28.9181387 13.9893166,29.330345 12.5131491,29.3620531 C11.8064731,29.3779072 11.2254284,29.4413236 11.2254284,29.4888859 C11.2254284,29.6474267 13.1413055,30.5352556 14.2562831,30.8840456 C17.601216,31.9145613 21.5743053,31.4706468 24.5580483,29.7108431 C26.6780762,28.4583702 28.798104,25.9692784 29.7874504,23.5594571 C30.3213833,22.2752759 30.8553163,19.928871 30.8553163,18.8032307 C30.8553163,18.0739427 30.902428,17.9788182 31.781847,17.1068434 C32.300076,16.5995126 32.7868973,16.0446195 32.8811207,15.8860786 C33.0381598,15.5848509 33.0224559,15.5848509 32.2215565,15.8543704 C30.8867241,16.3299931 30.6982772,16.2665767 31.3578414,15.5531428 C31.8446626,15.045812 32.4257073,14.1262749 32.4257073,13.8567554 C32.4257073,13.8091931 32.1901487,13.8884636 31.9231822,14.0311503 C31.6405118,14.1896912 31.0123554,14.4275025 30.5412381,14.5701893 L29.6932269,14.8397088 L28.9237353,14.3165239 C28.4997298,14.0311503 27.9029812,13.7140686 27.588903,13.6189441 C26.7880035,13.3969868 25.5630985,13.428695 24.8407187,13.6823604 C22.8777299,14.3957944 21.637121,16.2348685 21.7784561,18.2483377 Z" id="Shape" fill="#FFFFFF"></path>
                    </g>
                </g>
            </g>
        </g>
    </g>
</svg>