<?xml version="1.0" encoding="UTF-8"?>
<svg width="18px" height="19px" viewBox="0 0 18 19" version="1.1" xmlns="http://www.w3.org/2000/svg" xmlns:xlink="http://www.w3.org/1999/xlink">
    <!-- Generator: Sketch 40.1 (33804) - http://www.bohemiancoding.com/sketch -->
    <title>Combined Shape</title>
    <desc>Created with Sketch.</desc>
    <defs></defs>
    <g id="Symbols" stroke="none" stroke-width="1" fill="none" fill-rule="evenodd">
        <g id="header" transform="translate(-775.000000, -21.000000)" stroke="#000">
            <g id="Group-2" transform="translate(775.000000, 22.000000)">
                <path d="M14.2015375,9.89028963 C14.3214528,9.44621287 14.3852779,8.98029603 14.3852779,8.5 C14.3852779,8.01970397 14.3214528,7.55378713 14.2015375,7.10971037 L16.8220877,5.59673497 L15.2670121,2.90326503 L12.5596234,4.46637663 C11.9087148,3.88410671 11.1166294,3.44662767 10.2384096,3.20703249 L10.2384096,0 L7.12825842,0 L7.12825842,3.20703249 C6.25003862,3.44662767 5.45795321,3.88410671 4.80704459,4.46637663 L2.09965588,2.90326503 L0.544580283,5.59673497 L3.16513055,7.10971037 C3.04521524,7.55378713 2.98139017,8.01970397 2.98139017,8.5 C2.98139017,8.98029603 3.04521524,9.44621287 3.16513055,9.89028963 L0.544580283,11.403265 L2.09965588,14.096735 L4.80704459,12.5336234 C5.45795321,13.1158933 6.25003862,13.5533723 7.12825842,13.7929675 L7.12825842,17 L10.2384096,17 L10.2384096,13.7929675 C11.1166294,13.5533723 11.9087148,13.1158933 12.5596234,12.5336234 L15.2670121,14.096735 L16.8220877,11.403265 L14.2015375,9.89028963 Z M8.68333401,10.694392 C9.93976175,10.694392 10.9582977,9.71192926 10.9582977,8.5 C10.9582977,7.28807074 9.93976175,6.30560797 8.68333401,6.30560797 C7.42690627,6.30560797 6.40837035,7.28807074 6.40837035,8.5 C6.40837035,9.71192926 7.42690627,10.694392 8.68333401,10.694392 Z" id="Combined-Shape"></path>
            </g>
        </g>
    </g>
</svg>
