<?xml version="1.0" encoding="UTF-8"?>
<svg width="46px" height="46px" viewBox="0 0 46 46" version="1.1" xmlns="http://www.w3.org/2000/svg" xmlns:xlink="http://www.w3.org/1999/xlink">
    <!-- Generator: Sketch 40.1 (33804) - http://www.bohemiancoding.com/sketch -->
    <title>Pinterest_Color</title>
    <desc>Created with Sketch.</desc>
    <defs>
        <path d="M22.4139752,45.1584964 C10.033256,45.1584964 0.000480151993,35.1130771 0.000480151993,22.7250882 C0.000480151993,10.3370992 10.033256,0.294082592 22.4139752,0.294082592 C34.7922936,0.294082592 44.8274702,10.3370992 44.8274702,22.7250882 C44.8274702,35.1130771 34.7922936,45.1584964 22.4139752,45.1584964 Z" id="path-1"></path>
        <mask id="mask-2" maskContentUnits="userSpaceOnUse" maskUnits="objectBoundingBox" x="0" y="0" width="44.8269901" height="44.8644138" fill="white">
            <use xlink:href="#path-1"></use>
        </mask>
    </defs>
    <g id="Design" stroke="none" stroke-width="1" fill="none" fill-rule="evenodd">
        <g id="Share-Page" transform="translate(-516.000000, -684.000000)">
            <g id="Group-9" transform="translate(410.000000, 683.554688)">
                <g id="Group-3">
                    <g id="Pinterest" transform="translate(106.267389, 0.596351)">
                        <use id="Fill-1892" stroke="#BD081C" mask="url(#mask-2)" stroke-width="6" fill="#FFFFFF" xlink:href="#path-1"></use>
                        <path d="M22.3870867,2.39662897 C11.1683354,2.39662897 2.07425661,11.4954098 2.07425661,22.7253284 C2.07425661,31.3363743 7.42795133,38.6932443 14.9831429,41.655694 C14.8054867,40.0483308 14.6470365,37.5808241 15.0551657,35.8220949 C15.422482,34.2363554 17.4367196,25.7190123 17.4367196,25.7190123 C17.4367196,25.7190123 16.8293274,24.5008761 16.8293274,22.7013021 C16.8293274,19.8734 18.4642449,17.763886 20.5048909,17.763886 C22.2358388,17.763886 23.073704,19.0661145 23.073704,20.6278276 C23.073704,22.372141 21.9645529,24.9790006 21.3907713,27.396052 C20.9130201,29.4214737 22.4062927,31.0696817 24.3989235,31.0696817 C28.0096665,31.0696817 30.784945,27.2591017 30.784945,21.7594689 C30.784945,16.8917293 27.2918393,13.4895973 22.3006593,13.4895973 C16.5220301,13.4895973 13.1297562,17.8287572 13.1297562,22.3120751 C13.1297562,24.0587912 13.7995683,25.9328469 14.6398343,26.9515644 C14.8054867,27.1533858 14.8294943,27.3287782 14.7814791,27.5354048 C14.6278305,28.1769085 14.2845218,29.558424 14.2173005,29.8395323 C14.1284724,30.2119408 13.922007,30.2912278 13.5354847,30.1134328 C11.0002822,28.9313361 9.41578058,25.2168615 9.41578058,22.2375934 C9.41578058,15.8249591 14.0708542,9.93369672 22.8360288,9.93369672 C29.8822593,9.93369672 35.3583928,14.9600103 35.3583928,21.6753767 C35.3583928,28.681462 30.9433952,34.3204476 24.8190565,34.3204476 C22.7592045,34.3204476 20.8241919,33.2488722 20.1615822,31.9850859 C20.1615822,31.9850859 19.14366,35.8653423 18.8963817,36.816786 C18.4378365,38.5827231 17.1990444,40.7955505 16.373183,42.1458316 C18.2721841,42.73688 20.2912232,43.0540279 22.3870867,43.0540279 C33.605838,43.0540279 42.6999167,33.9528444 42.6999167,22.7253284 C42.6999167,11.4954098 33.605838,2.39662897 22.3870867,2.39662897" id="Fill-1894" fill="#BD071C"></path>
                    </g>
                </g>
            </g>
        </g>
    </g>
</svg>