<?xml version="1.0" encoding="UTF-8"?>
<svg width="279px" height="496px" viewBox="0 0 279 496" version="1.1" xmlns="http://www.w3.org/2000/svg" xmlns:xlink="http://www.w3.org/1999/xlink">
    <title>shot-loading</title>
    <style type="text/css">
    @keyframes rotate_keyframe {
      from { transform: rotate(0deg);   }
      to   { transform: rotate(360deg); }
    }
    .rotate {
      animation: rotate_keyframe 1s linear infinite;
    }
    </style>
    <defs>
        <linearGradient x1="35.3587494%" y1="111.408351%" x2="50%" y2="100%" id="linearGradient-1">
            <stop stop-color="#FFFFFF" stop-opacity="0" offset="0%"></stop>
            <stop stop-color="#FFFFFF" offset="100%"></stop>
        </linearGradient>
        <polygon id="path-2" points="0 9.56666667 28.6331379 0 28.6331379 12.3 0 21.8666667"></polygon>
        <mask id="mask-3" maskContentUnits="userSpaceOnUse" maskUnits="objectBoundingBox" x="0" y="0" width="28.6331379" height="21.8666667" fill="white">
            <use xlink:href="#path-2"></use>
        </mask>
        <polygon id="path-4" points="-1.24344979e-13 19.1333333 28.6331379 9.56666667 28.6331379 21.8666667 -1.24344979e-13 31.4333333"></polygon>
        <mask id="mask-5" maskContentUnits="userSpaceOnUse" maskUnits="objectBoundingBox" x="0" y="0" width="28.6331379" height="21.8666667" fill="white">
            <use xlink:href="#path-4"></use>
        </mask>
        <polygon id="path-6" points="0 28.7 28.6331379 19.1333333 28.6331379 31.4333333 0 41"></polygon>
        <mask id="mask-7" maskContentUnits="userSpaceOnUse" maskUnits="objectBoundingBox" x="0" y="0" width="28.6331379" height="21.8666667" fill="white">
            <use xlink:href="#path-6"></use>
        </mask>
    </defs>
    <g stroke="none" stroke-width="1" fill="none" fill-rule="evenodd">
        <rect fill="#53CCAF" x="0" y="0" width="279" height="496"></rect>
        <text font-family="Helvetica, sans-serif" font-size="20" font-weight="normal" line-spacing="30" letter-spacing="0.873000026" fill="#FFFFFF">
            <tspan x="94.4999999" y="307">Loading…</tspan>
        </text>
        <g transform="translate(140, 222)">
            <g class="rotate">
                <g transform="translate(-40, -40)" stroke="url(#linearGradient-1)" stroke-width="2" stroke-linecap="round" stroke-linejoin="round">
                    <path d="M40,80 C62.09139,80 80,62.09139 80,40 C80,17.90861 62.09139,0 40,0 C17.90861,0 0,17.90861 0,40 C0,48.2708197 2.51022646,55.9553446 6.81037649,62.3332719" id="Oval"></path>
                </g>
            </g>
        </g>
        <g transform="translate(125.000000, 202.000000)" stroke="#FFFFFF" stroke-width="4">
            <use mask="url(#mask-3)" xlink:href="#path-2"></use>
            <use mask="url(#mask-5)" transform="translate(14.316569, 20.500000) scale(-1, 1) translate(-14.316569, -20.500000) " xlink:href="#path-4"></use>
            <use mask="url(#mask-7)" xlink:href="#path-6"></use>
        </g>
    </g>
</svg>
